<svg t="1647958171874" class="icon" viewBox="0 0 1024 1024" version="1.1" xmlns="http://www.w3.org/2000/svg" p-id="4957" width="200" height="200"><path d="M465.92 842.666667a95.274667 95.274667 0 0 1-34.133333-5.546667c-146.304-49.92-378.453333-227.882667-378.453334-491.946667a244.522667 244.522667 0 0 1 243.626667-244.906666 240.298667 240.298667 0 0 1 169.386667 68.693333 241.621333 241.621333 0 0 1 169.386666-68.693333 244.522667 244.522667 0 0 1 243.626667 244.906666 425.6 425.6 0 0 1-3.84 56.277334 33.237333 33.237333 0 0 1-15.786667 23.936 30.549333 30.549333 0 0 1-15.701333 4.266666 33.749333 33.749333 0 0 1-12.8-2.56 123.178667 123.178667 0 0 0-49.024-9.941333 128.384 128.384 0 0 0-102.954667 50.048 36.181333 36.181333 0 0 1-25.6 12.8 31.36 31.36 0 0 1-25.6-12.8 126.506667 126.506667 0 0 0-227.84 76.8 318.464 318.464 0 0 0 117.333334 237.184 32.256 32.256 0 0 1-4.693334 51.669333 48.512 48.512 0 0 1-10.666666 4.693334 123.392 123.392 0 0 1-36.266667 5.12zM296.96 164.266667a180.437333 180.437333 0 0 0-179.626667 180.906666c0 255.616 243.456 389.205333 292.266667 413.397334a352.896 352.896 0 0 1-73.813333-215.04 190.336 190.336 0 0 1 317.44-142.890667 194.773333 194.773333 0 0 1 128-48.298667 184.149333 184.149333 0 0 1 33.578666 3.072V345.6a179.541333 179.541333 0 0 0-323.285333-108.8 32 32 0 0 1-51.2 0 175.829333 175.829333 0 0 0-143.36-72.533333z" fill="#292D32" p-id="4958"></path><path d="M653.696 923.733333a84.48 84.48 0 0 1-28.202667-4.266666 469.333333 469.333333 0 0 1-150.186666-90.88 381.354667 381.354667 0 0 1-138.624-285.013334 190.336 190.336 0 0 1 317.44-142.933333 193.493333 193.493333 0 0 1 128-47.872 186.752 186.752 0 0 1 75.093333 15.445333 192.384 192.384 0 0 1 113.92 175.786667c0 202.24-177.408 337.92-289.28 375.893333a98.986667 98.986667 0 0 1-28.16 3.84z m-127.146667-507.733333a127.061333 127.061333 0 0 0-126.293333 127.573333 318.634667 318.634667 0 0 0 117.333333 237.226667 399.530667 399.530667 0 0 0 128.426667 78.08 23.594667 23.594667 0 0 0 7.381333 0.938667 20.608 20.608 0 0 0 7.082667-0.938667c64-21.717333 246.186667-126.293333 246.186667-315.306667A127.36 127.36 0 0 0 831.189333 426.666667a120.661333 120.661333 0 0 0-48.64-9.941334 130.517333 130.517333 0 0 0-103.253333 50.048 36.010667 36.010667 0 0 1-25.6 12.8 31.402667 31.402667 0 0 1-25.6-12.8 125.781333 125.781333 0 0 0-101.546667-50.773333z" fill="#292D32" p-id="4959"></path></svg>